<?xml version="1.0" encoding="UTF-8" standalone="no"?>
<svg
  xmlns="http://www.w3.org/2000/svg"
  xmlns:xlink="http://www.w3.org/1999/xlink"
  width="64"
  height="64"
  viewBox="0 0 64 64"
  version="1.1"
>
  <!-- Background Circle (Dark Theme) -->
  <circle
    cx="32"
    cy="32"
    r="28"
    fill="#1A1A1A"
    stroke="#C0C0C0"
    stroke-width="1.5"
  />

  <!-- Main Neural Nodes (Dark Theme) -->
  <g id="neural-nodes">
    <!-- Node 1: Top -->
    <circle
      cx="32"
      cy="16"
      r="4"
      fill="#C0C0C0"
    />
    <circle
      cx="32"
      cy="16"
      r="3"
      fill="#1E90FF"
    />

    <!-- Node 2: Bottom -->
    <circle
      cx="32"
      cy="48"
      r="4"
      fill="#C0C0C0"
    />
    <circle
      cx="32"
      cy="48"
      r="3"
      fill="#1E90FF"
    />

    <!-- Node 3: Left -->
    <circle
      cx="16"
      cy="32"
      r="4"
      fill="#C0C0C0"
    />
    <circle
      cx="16"
      cy="32"
      r="3"
      fill="#1E90FF"
    />

    <!-- Node 4: Right -->
    <circle
      cx="48"
      cy="32"
      r="4"
      fill="#C0C0C0"
    />
    <circle
      cx="48"
      cy="32"
      r="3"
      fill="#1E90FF"
    />

    <!-- Node 5: Top-Left -->
    <circle
      cx="22"
      cy="22"
      r="4"
      fill="#C0C0C0"
    />
    <circle
      cx="22"
      cy="22"
      r="3"
      fill="#1E90FF"
    />

    <!-- Node 6: Top-Right -->
    <circle
      cx="42"
      cy="22"
      r="4"
      fill="#C0C0C0"
    />
    <circle
      cx="42"
      cy="22"
      r="3"
      fill="#1E90FF"
    />
  </g>

  <!-- Central Core (Dark Theme) -->
  <circle
    cx="32"
    cy="32"
    r="6"
    fill="#FFD700"
    stroke="#1E90FF"
    stroke-width="1.5"
  />

  <!-- Connection Lines (Dark Theme) -->
  <g id="connection-lines" stroke="#1E90FF" stroke-width="1.5" stroke-linecap="round">
    <line x1="32" y1="16" x2="32" y2="48" />
    <line x1="16" y1="32" x2="48" y2="32" />
    <line x1="22" y1="22" x2="42" y2="22" />
    <line x1="32" y1="16" x2="22" y2="22" />
    <line x1="32" y1="16" x2="42" y2="22" />
    <line x1="32" y1="48" x2="22" y2="22" />
    <line x1="32" y1="48" x2="42" y2="22" />
    <line x1="16" y1="32" x2="32" y2="16" />
    <line x1="16" y1="32" x2="32" y2="48" />
    <line x1="48" y1="32" x2="32" y2="16" />
    <line x1="48" y1="32" x2="32" y2="48" />
  </g>
</svg>