<svg xmlns="http://www.w3.org/2000/svg" width="32" height="32" viewBox="0 0 32 32">
  <circle cx="16" cy="16" r="15" fill="#1A1A1A" stroke="#C0C0C0" stroke-width="1"/>
  <circle cx="16" cy="8" r="3" fill="#C0C0C0"/>
  <circle cx="16" cy="24" r="3" fill="#C0C0C0"/>
  <circle cx="8" cy="16" r="3" fill="#C0C0C0"/>
  <circle cx="24" cy="16" r="3" fill="#C0C0C0"/>
  <circle cx="11.32" cy="11.32" r="3" fill="#C0C0C0"/>
  <circle cx="20.68" cy="11.32" r="3" fill="#C0C0C0"/>
  <circle cx="16" cy="16" r="4" fill="#FFD700"/>
  <line x1="16" y1="8" x2="16" y2="24" stroke="#1E90FF" stroke-width="1"/>
  <line x1="8" y1="16" x2="24" y2="16" stroke="#1E90FF" stroke-width="1"/>
  <line x1="11.32" y1="11.32" x2="20.68" y2="11.32" stroke="#1E90FF" stroke-width="1"/>
  <line x1="16" y1="8" x2="11.32" y2="11.32" stroke="#1E90FF" stroke-width="1"/>
  <line x1="16" y1="8" x2="20.68" y2="11.32" stroke="#1E90FF" stroke-width="1"/>
  <line x1="16" y1="24" x2="11.32" y2="11.32" stroke="#1E90FF" stroke-width="1"/>
  <line x1="16" y1="24" x2="20.68" y2="11.32" stroke="#1E90FF" stroke-width="1"/>
  <line x1="8" y1="16" x2="16" y2="8" stroke="#1E90FF" stroke-width="1"/>
  <line x1="8" y1="16" x2="16" y2="24" stroke="#1E90FF" stroke-width="1"/>
  <line x1="24" y1="16" x2="16" y2="8" stroke="#1E90FF" stroke-width="1"/>
  <line x1="24" y1="16" x2="16" y2="24" stroke="#1E90FF" stroke-width="1"/>
</svg>