<svg xmlns="http://www.w3.org/2000/svg" width="16" height="16" viewBox="0 0 16 16">
  <circle cx="8" cy="8" r="7" fill="#1A1A1A" stroke="#C0C0C0" stroke-width="0.5"/>
  <circle cx="8" cy="4" r="1.5" fill="#C0C0C0"/>
  <circle cx="8" cy="12" r="1.5" fill="#C0C0C0"/>
  <circle cx="4" cy="8" r="1.5" fill="#C0C0C0"/>
  <circle cx="12" cy="8" r="1.5" fill="#C0C0C0"/>
  <circle cx="5.66" cy="5.66" r="1.5" fill="#C0C0C0"/>
  <circle cx="10.34" cy="5.66" r="1.5" fill="#C0C0C0"/>
  <circle cx="8" cy="8" r="2" fill="#FFD700"/>
  <line x1="8" y1="4" x2="8" y2="12" stroke="#1E90FF" stroke-width="0.5"/>
  <line x1="4" y1="8" x2="12" y2="8" stroke="#1E90FF" stroke-width="0.5"/>
  <line x1="5.66" y1="5.66" x2="10.34" y2="5.66" stroke="#1E90FF" stroke-width="0.5"/>
  <line x1="8" y1="4" x2="5.66" y2="5.66" stroke="#1E90FF" stroke-width="0.5"/>
  <line x1="8" y1="4" x2="10.34" y2="5.66" stroke="#1E90FF" stroke-width="0.5"/>
  <line x1="8" y1="12" x2="5.66" y2="5.66" stroke="#1E90FF" stroke-width="0.5"/>
  <line x1="8" y1="12" x2="10.34" y2="5.66" stroke="#1E90FF" stroke-width="0.5"/>
  <line x1="4" y1="8" x2="8" y2="4" stroke="#1E90FF" stroke-width="0.5"/>
  <line x1="4" y1="8" x2="8" y2="12" stroke="#1E90FF" stroke-width="0.5"/>
  <line x1="12" y1="8" x2="8" y2="4" stroke="#1E90FF" stroke-width="0.5"/>
  <line x1="12" y1="8" x2="8" y2="12" stroke="#1E90FF" stroke-width="0.5"/>
</svg>