<svg xmlns="http://www.w3.org/2000/svg" width="512" height="512" viewBox="0 0 512 512">
  <circle cx="256" cy="256" r="255" fill="#1A1A1A" stroke="#C0C0C0" stroke-width="8"/>
  <circle cx="256" cy="128" r="48" fill="#C0C0C0"/>
  <circle cx="256" cy="384" r="48" fill="#C0C0C0"/>
  <circle cx="128" cy="256" r="48" fill="#C0C0C0"/>
  <circle cx="384" cy="256" r="48" fill="#C0C0C0"/>
  <circle cx="181.12" cy="181.12" r="48" fill="#C0C0C0"/>
  <circle cx="330.88" cy="181.12" r="48" fill="#C0C0C0"/>
  <circle cx="256" cy="256" r="64" fill="#FFD700"/>
  <line x1="256" y1="128" x2="256" y2="384" stroke="#1E90FF" stroke-width="8"/>
  <line x1="128" y1="256" x2="384" y2="256" stroke="#1E90FF" stroke-width="8"/>
  <line x1="181.12" y1="181.12" x2="330.88" y2="181.12" stroke="#1E90FF" stroke-width="8"/>
  <line x1="256" y1="128" x2="181.12" y2="181.12" stroke="#1E90FF" stroke-width="8"/>
  <line x1="256" y1="128" x2="330.88" y2="181.12" stroke="#1E90FF" stroke-width="8"/>
  <line x1="256" y1="384" x2="181.12" y2="181.12" stroke="#1E90FF" stroke-width="8"/>
  <line x1="256" y1="384" x2="330.88" y2="181.12" stroke="#1E90FF" stroke-width="8"/>
  <line x1="128" y1="256" x2="256" y2="128" stroke="#1E90FF" stroke-width="8"/>
  <line x1="128" y1="256" x2="256" y2="384" stroke="#1E90FF" stroke-width="8"/>
  <line x1="384" y1="256" x2="256" y2="128" stroke="#1E90FF" stroke-width="8"/>
  <line x1="384" y1="256" x2="256" y2="384" stroke="#1E90FF" stroke-width="8"/>
</svg>