<svg xmlns="http://www.w3.org/2000/svg" width="64" height="64" viewBox="0 0 64 64">
  <circle cx="32" cy="32" r="31" fill="#1A1A1A" stroke="#C0C0C0" stroke-width="2"/>
  <circle cx="32" cy="16" r="6" fill="#C0C0C0"/>
  <circle cx="32" cy="48" r="6" fill="#C0C0C0"/>
  <circle cx="16" cy="32" r="6" fill="#C0C0C0"/>
  <circle cx="48" cy="32" r="6" fill="#C0C0C0"/>
  <circle cx="22.64" cy="22.64" r="6" fill="#C0C0C0"/>
  <circle cx="41.36" cy="22.64" r="6" fill="#C0C0C0"/>
  <circle cx="32" cy="32" r="8" fill="#FFD700"/>
  <line x1="32" y1="16" x2="32" y2="48" stroke="#1E90FF" stroke-width="2"/>
  <line x1="16" y1="32" x2="48" y2="32" stroke="#1E90FF" stroke-width="2"/>
  <line x1="22.64" y1="22.64" x2="41.36" y2="22.64" stroke="#1E90FF" stroke-width="2"/>
  <line x1="32" y1="16" x2="22.64" y2="22.64" stroke="#1E90FF" stroke-width="2"/>
  <line x1="32" y1="16" x2="41.36" y2="22.64" stroke="#1E90FF" stroke-width="2"/>
  <line x1="32" y1="48" x2="22.64" y2="22.64" stroke="#1E90FF" stroke-width="2"/>
  <line x1="32" y1="48" x2="41.36" y2="22.64" stroke="#1E90FF" stroke-width="2"/>
  <line x1="16" y1="32" x2="32" y2="16" stroke="#1E90FF" stroke-width="2"/>
  <line x1="16" y1="32" x2="32" y2="48" stroke="#1E90FF" stroke-width="2"/>
  <line x1="48" y1="32" x2="32" y2="16" stroke="#1E90FF" stroke-width="2"/>
  <line x1="48" y1="32" x2="32" y2="48" stroke="#1E90FF" stroke-width="2"/>
</svg>