<svg xmlns="http://www.w3.org/2000/svg" width="256" height="256" viewBox="0 0 256 256">
  <circle cx="128" cy="128" r="127" fill="#1A1A1A" stroke="#C0C0C0" stroke-width="4"/>
  <circle cx="128" cy="64" r="24" fill="#C0C0C0"/>
  <circle cx="128" cy="192" r="24" fill="#C0C0C0"/>
  <circle cx="64" cy="128" r="24" fill="#C0C0C0"/>
  <circle cx="192" cy="128" r="24" fill="#C0C0C0"/>
  <circle cx="90.56" cy="90.56" r="24" fill="#C0C0C0"/>
  <circle cx="165.44" cy="90.56" r="24" fill="#C0C0C0"/>
  <circle cx="128" cy="128" r="32" fill="#FFD700"/>
  <line x1="128" y1="64" x2="128" y2="192" stroke="#1E90FF" stroke-width="4"/>
  <line x1="64" y1="128" x2="192" y2="128" stroke="#1E90FF" stroke-width="4"/>
  <line x1="90.56" y1="90.56" x2="165.44" y2="90.56" stroke="#1E90FF" stroke-width="4"/>
  <line x1="128" y1="64" x2="90.56" y2="90.56" stroke="#1E90FF" stroke-width="4"/>
  <line x1="128" y1="64" x2="165.44" y2="90.56" stroke="#1E90FF" stroke-width="4"/>
  <line x1="128" y1="192" x2="90.56" y2="90.56" stroke="#1E90FF" stroke-width="4"/>
  <line x1="128" y1="192" x2="165.44" y2="90.56" stroke="#1E90FF" stroke-width="4"/>
  <line x1="64" y1="128" x2="128" y2="64" stroke="#1E90FF" stroke-width="4"/>
  <line x1="64" y1="128" x2="128" y2="192" stroke="#1E90FF" stroke-width="4"/>
  <line x1="192" y1="128" x2="128" y2="64" stroke="#1E90FF" stroke-width="4"/>
  <line x1="192" y1="128" x2="128" y2="192" stroke="#1E90FF" stroke-width="4"/>
</svg>